# 3ds Max Wavefront OBJ Exporter v0.99 - (c)2007 guruware
# File Created: 19.07.2024 23:12:50

mtllib cube.mtl

#
# object Box001
#

v  -3.9440 0.0000 3.8760
v  -3.9440 0.0000 -3.8370
v  3.7689 0.0000 -3.8370
v  3.7689 0.0000 3.8760
v  -3.9440 7.7129 3.8760
v  3.7689 7.7129 3.8760
v  3.7689 7.7129 -3.8370
v  -3.9440 7.7129 -3.8370
# 8 vertices

vn -0.5774 -0.5774 0.5774
vn -0.5774 -0.5774 -0.5774
vn 0.5774 -0.5774 -0.5774
vn 0.5774 -0.5774 0.5774
vn -0.5774 0.5774 0.5774
vn 0.5774 0.5774 0.5774
vn 0.5774 0.5774 -0.5774
vn -0.5774 0.5774 -0.5774
# 8 vertex normals

vt 0.0298 0.4791 0.0000
vt 0.2081 0.6319 0.0000
vt 0.5735 0.5471 0.0000
vt 0.3953 0.3944 0.0000
vt 0.0298 0.8449 0.0000
vt 0.3953 0.7602 0.0000
vt 0.5735 0.9129 0.0000
vt 0.2081 0.9977 0.0000
# 8 texture coords

o Box001
g Box001
usemtl Material__25
s 2
f 1/1/1 2/2/2 3/3/3 4/4/4 
s 4
f 5/5/5 6/6/6 7/7/7 8/8/8 
s 8
f 1/1/1 4/4/4 6/6/6 5/5/5 
s 16
f 4/4/4 3/3/3 7/7/7 6/6/6 
s 32
f 3/3/3 2/2/2 8/8/8 7/7/7 
s 64
f 2/2/2 1/1/1 5/5/5 8/8/8 
# 6 polygons

